<?xml version="1.0" encoding="utf-8"?>
<!DOCTYPE svg PUBLIC "-//W3C//DTD SVG 1.1//EN" "http://www.w3.org/Graphics/SVG/1.1/DTD/svg11.dtd">
<svg version="1.1" id="QRCode_Layer" xmlns:ev="http://www.w3.org/2001/xml-events"
  xmlns="http://www.w3.org/2000/svg" xmlns:xlink="http://www.w3.org/1999/xlink" x="0px" y="0px" width="825px" height="825px"
  viewBox="0 0 825 825" enable-background="new 0 0 825 825" xml:space="preserve">
<path fill="#FFFFFF" d="M0,0v825h825V0H0z"/><rect x="50" y="50" fill="#000000" width="175" height="25"/>
<rect x="250" y="50" fill="#000000" width="100" height="25"/>
<rect x="375" y="50" fill="#000000" width="50" height="25"/>
<rect x="475" y="50" fill="#000000" width="50" height="25"/>
<rect x="600" y="50" fill="#000000" width="175" height="25"/>
<rect x="50" y="75" fill="#000000" width="25" height="25"/>
<rect x="200" y="75" fill="#000000" width="25" height="25"/>
<rect x="250" y="75" fill="#000000" width="25" height="25"/>
<rect x="325" y="75" fill="#000000" width="25" height="25"/>
<rect x="400" y="75" fill="#000000" width="25" height="25"/>
<rect x="450" y="75" fill="#000000" width="25" height="25"/>
<rect x="500" y="75" fill="#000000" width="25" height="25"/>
<rect x="550" y="75" fill="#000000" width="25" height="25"/>
<rect x="600" y="75" fill="#000000" width="25" height="25"/>
<rect x="750" y="75" fill="#000000" width="25" height="25"/>
<rect x="50" y="100" fill="#000000" width="25" height="25"/>
<rect x="100" y="100" fill="#000000" width="75" height="25"/>
<rect x="200" y="100" fill="#000000" width="25" height="25"/>
<rect x="275" y="100" fill="#000000" width="25" height="25"/>
<rect x="375" y="100" fill="#000000" width="25" height="25"/>
<rect x="425" y="100" fill="#000000" width="25" height="25"/>
<rect x="475" y="100" fill="#000000" width="25" height="25"/>
<rect x="550" y="100" fill="#000000" width="25" height="25"/>
<rect x="600" y="100" fill="#000000" width="25" height="25"/>
<rect x="650" y="100" fill="#000000" width="75" height="25"/>
<rect x="750" y="100" fill="#000000" width="25" height="25"/>
<rect x="50" y="125" fill="#000000" width="25" height="25"/>
<rect x="100" y="125" fill="#000000" width="75" height="25"/>
<rect x="200" y="125" fill="#000000" width="25" height="25"/>
<rect x="325" y="125" fill="#000000" width="50" height="25"/>
<rect x="425" y="125" fill="#000000" width="25" height="25"/>
<rect x="475" y="125" fill="#000000" width="25" height="25"/>
<rect x="525" y="125" fill="#000000" width="25" height="25"/>
<rect x="600" y="125" fill="#000000" width="25" height="25"/>
<rect x="650" y="125" fill="#000000" width="75" height="25"/>
<rect x="750" y="125" fill="#000000" width="25" height="25"/>
<rect x="50" y="150" fill="#000000" width="25" height="25"/>
<rect x="100" y="150" fill="#000000" width="75" height="25"/>
<rect x="200" y="150" fill="#000000" width="25" height="25"/>
<rect x="250" y="150" fill="#000000" width="25" height="25"/>
<rect x="325" y="150" fill="#000000" width="50" height="25"/>
<rect x="400" y="150" fill="#000000" width="25" height="25"/>
<rect x="500" y="150" fill="#000000" width="25" height="25"/>
<rect x="600" y="150" fill="#000000" width="25" height="25"/>
<rect x="650" y="150" fill="#000000" width="75" height="25"/>
<rect x="750" y="150" fill="#000000" width="25" height="25"/>
<rect x="50" y="175" fill="#000000" width="25" height="25"/>
<rect x="200" y="175" fill="#000000" width="25" height="25"/>
<rect x="250" y="175" fill="#000000" width="75" height="25"/>
<rect x="350" y="175" fill="#000000" width="75" height="25"/>
<rect x="475" y="175" fill="#000000" width="50" height="25"/>
<rect x="550" y="175" fill="#000000" width="25" height="25"/>
<rect x="600" y="175" fill="#000000" width="25" height="25"/>
<rect x="750" y="175" fill="#000000" width="25" height="25"/>
<rect x="50" y="200" fill="#000000" width="175" height="25"/>
<rect x="250" y="200" fill="#000000" width="25" height="25"/>
<rect x="300" y="200" fill="#000000" width="25" height="25"/>
<rect x="350" y="200" fill="#000000" width="25" height="25"/>
<rect x="400" y="200" fill="#000000" width="25" height="25"/>
<rect x="450" y="200" fill="#000000" width="25" height="25"/>
<rect x="500" y="200" fill="#000000" width="25" height="25"/>
<rect x="550" y="200" fill="#000000" width="25" height="25"/>
<rect x="600" y="200" fill="#000000" width="175" height="25"/>
<rect x="250" y="225" fill="#000000" width="50" height="25"/>
<rect x="375" y="225" fill="#000000" width="25" height="25"/>
<rect x="425" y="225" fill="#000000" width="50" height="25"/>
<rect x="50" y="250" fill="#000000" width="75" height="25"/>
<rect x="175" y="250" fill="#000000" width="50" height="25"/>
<rect x="250" y="250" fill="#000000" width="50" height="25"/>
<rect x="325" y="250" fill="#000000" width="75" height="25"/>
<rect x="450" y="250" fill="#000000" width="25" height="25"/>
<rect x="525" y="250" fill="#000000" width="150" height="25"/>
<rect x="725" y="250" fill="#000000" width="50" height="25"/>
<rect x="75" y="275" fill="#000000" width="50" height="25"/>
<rect x="175" y="275" fill="#000000" width="25" height="25"/>
<rect x="225" y="275" fill="#000000" width="50" height="25"/>
<rect x="350" y="275" fill="#000000" width="25" height="25"/>
<rect x="425" y="275" fill="#000000" width="25" height="25"/>
<rect x="475" y="275" fill="#000000" width="100" height="25"/>
<rect x="600" y="275" fill="#000000" width="50" height="25"/>
<rect x="725" y="275" fill="#000000" width="50" height="25"/>
<rect x="50" y="300" fill="#000000" width="75" height="25"/>
<rect x="175" y="300" fill="#000000" width="50" height="25"/>
<rect x="250" y="300" fill="#000000" width="75" height="25"/>
<rect x="350" y="300" fill="#000000" width="100" height="25"/>
<rect x="475" y="300" fill="#000000" width="125" height="25"/>
<rect x="625" y="300" fill="#000000" width="100" height="25"/>
<rect x="750" y="300" fill="#000000" width="25" height="25"/>
<rect x="75" y="325" fill="#000000" width="25" height="25"/>
<rect x="175" y="325" fill="#000000" width="25" height="25"/>
<rect x="250" y="325" fill="#000000" width="25" height="25"/>
<rect x="300" y="325" fill="#000000" width="75" height="25"/>
<rect x="400" y="325" fill="#000000" width="50" height="25"/>
<rect x="500" y="325" fill="#000000" width="25" height="25"/>
<rect x="550" y="325" fill="#000000" width="25" height="25"/>
<rect x="625" y="325" fill="#000000" width="25" height="25"/>
<rect x="675" y="325" fill="#000000" width="25" height="25"/>
<rect x="50" y="350" fill="#000000" width="100" height="25"/>
<rect x="175" y="350" fill="#000000" width="50" height="25"/>
<rect x="250" y="350" fill="#000000" width="75" height="25"/>
<rect x="375" y="350" fill="#000000" width="50" height="25"/>
<rect x="450" y="350" fill="#000000" width="25" height="25"/>
<rect x="525" y="350" fill="#000000" width="25" height="25"/>
<rect x="600" y="350" fill="#000000" width="25" height="25"/>
<rect x="750" y="350" fill="#000000" width="25" height="25"/>
<rect x="100" y="375" fill="#000000" width="25" height="25"/>
<rect x="150" y="375" fill="#000000" width="50" height="25"/>
<rect x="250" y="375" fill="#000000" width="25" height="25"/>
<rect x="300" y="375" fill="#000000" width="25" height="25"/>
<rect x="375" y="375" fill="#000000" width="125" height="25"/>
<rect x="525" y="375" fill="#000000" width="125" height="25"/>
<rect x="725" y="375" fill="#000000" width="50" height="25"/>
<rect x="50" y="400" fill="#000000" width="50" height="25"/>
<rect x="150" y="400" fill="#000000" width="75" height="25"/>
<rect x="300" y="400" fill="#000000" width="50" height="25"/>
<rect x="425" y="400" fill="#000000" width="25" height="25"/>
<rect x="525" y="400" fill="#000000" width="25" height="25"/>
<rect x="575" y="400" fill="#000000" width="75" height="25"/>
<rect x="750" y="400" fill="#000000" width="25" height="25"/>
<rect x="50" y="425" fill="#000000" width="50" height="25"/>
<rect x="125" y="425" fill="#000000" width="25" height="25"/>
<rect x="225" y="425" fill="#000000" width="50" height="25"/>
<rect x="300" y="425" fill="#000000" width="25" height="25"/>
<rect x="375" y="425" fill="#000000" width="25" height="25"/>
<rect x="425" y="425" fill="#000000" width="50" height="25"/>
<rect x="500" y="425" fill="#000000" width="50" height="25"/>
<rect x="575" y="425" fill="#000000" width="50" height="25"/>
<rect x="100" y="450" fill="#000000" width="50" height="25"/>
<rect x="175" y="450" fill="#000000" width="50" height="25"/>
<rect x="325" y="450" fill="#000000" width="75" height="25"/>
<rect x="450" y="450" fill="#000000" width="25" height="25"/>
<rect x="525" y="450" fill="#000000" width="25" height="25"/>
<rect x="600" y="450" fill="#000000" width="25" height="25"/>
<rect x="750" y="450" fill="#000000" width="25" height="25"/>
<rect x="75" y="475" fill="#000000" width="25" height="25"/>
<rect x="125" y="475" fill="#000000" width="25" height="25"/>
<rect x="225" y="475" fill="#000000" width="100" height="25"/>
<rect x="350" y="475" fill="#000000" width="25" height="25"/>
<rect x="425" y="475" fill="#000000" width="50" height="25"/>
<rect x="500" y="475" fill="#000000" width="75" height="25"/>
<rect x="600" y="475" fill="#000000" width="50" height="25"/>
<rect x="700" y="475" fill="#000000" width="75" height="25"/>
<rect x="50" y="500" fill="#000000" width="50" height="25"/>
<rect x="200" y="500" fill="#000000" width="50" height="25"/>
<rect x="275" y="500" fill="#000000" width="50" height="25"/>
<rect x="350" y="500" fill="#000000" width="100" height="25"/>
<rect x="475" y="500" fill="#000000" width="25" height="25"/>
<rect x="525" y="500" fill="#000000" width="25" height="25"/>
<rect x="575" y="500" fill="#000000" width="25" height="25"/>
<rect x="675" y="500" fill="#000000" width="25" height="25"/>
<rect x="750" y="500" fill="#000000" width="25" height="25"/>
<rect x="100" y="525" fill="#000000" width="25" height="25"/>
<rect x="150" y="525" fill="#000000" width="25" height="25"/>
<rect x="225" y="525" fill="#000000" width="50" height="25"/>
<rect x="300" y="525" fill="#000000" width="75" height="25"/>
<rect x="400" y="525" fill="#000000" width="75" height="25"/>
<rect x="500" y="525" fill="#000000" width="25" height="25"/>
<rect x="550" y="525" fill="#000000" width="25" height="25"/>
<rect x="625" y="525" fill="#000000" width="50" height="25"/>
<rect x="50" y="550" fill="#000000" width="50" height="25"/>
<rect x="150" y="550" fill="#000000" width="100" height="25"/>
<rect x="275" y="550" fill="#000000" width="25" height="25"/>
<rect x="375" y="550" fill="#000000" width="50" height="25"/>
<rect x="450" y="550" fill="#000000" width="25" height="25"/>
<rect x="525" y="550" fill="#000000" width="175" height="25"/>
<rect x="725" y="550" fill="#000000" width="25" height="25"/>
<rect x="250" y="575" fill="#000000" width="25" height="25"/>
<rect x="300" y="575" fill="#000000" width="25" height="25"/>
<rect x="375" y="575" fill="#000000" width="100" height="25"/>
<rect x="550" y="575" fill="#000000" width="25" height="25"/>
<rect x="650" y="575" fill="#000000" width="75" height="25"/>
<rect x="750" y="575" fill="#000000" width="25" height="25"/>
<rect x="50" y="600" fill="#000000" width="175" height="25"/>
<rect x="300" y="600" fill="#000000" width="50" height="25"/>
<rect x="425" y="600" fill="#000000" width="50" height="25"/>
<rect x="500" y="600" fill="#000000" width="25" height="25"/>
<rect x="550" y="600" fill="#000000" width="25" height="25"/>
<rect x="600" y="600" fill="#000000" width="25" height="25"/>
<rect x="650" y="600" fill="#000000" width="25" height="25"/>
<rect x="750" y="600" fill="#000000" width="25" height="25"/>
<rect x="50" y="625" fill="#000000" width="25" height="25"/>
<rect x="200" y="625" fill="#000000" width="25" height="25"/>
<rect x="250" y="625" fill="#000000" width="25" height="25"/>
<rect x="300" y="625" fill="#000000" width="25" height="25"/>
<rect x="375" y="625" fill="#000000" width="25" height="25"/>
<rect x="425" y="625" fill="#000000" width="25" height="25"/>
<rect x="500" y="625" fill="#000000" width="75" height="25"/>
<rect x="650" y="625" fill="#000000" width="25" height="25"/>
<rect x="725" y="625" fill="#000000" width="25" height="25"/>
<rect x="50" y="650" fill="#000000" width="25" height="25"/>
<rect x="100" y="650" fill="#000000" width="75" height="25"/>
<rect x="200" y="650" fill="#000000" width="25" height="25"/>
<rect x="300" y="650" fill="#000000" width="100" height="25"/>
<rect x="425" y="650" fill="#000000" width="50" height="25"/>
<rect x="525" y="650" fill="#000000" width="175" height="25"/>
<rect x="750" y="650" fill="#000000" width="25" height="25"/>
<rect x="50" y="675" fill="#000000" width="25" height="25"/>
<rect x="100" y="675" fill="#000000" width="75" height="25"/>
<rect x="200" y="675" fill="#000000" width="25" height="25"/>
<rect x="350" y="675" fill="#000000" width="25" height="25"/>
<rect x="425" y="675" fill="#000000" width="50" height="25"/>
<rect x="550" y="675" fill="#000000" width="50" height="25"/>
<rect x="650" y="675" fill="#000000" width="75" height="25"/>
<rect x="750" y="675" fill="#000000" width="25" height="25"/>
<rect x="50" y="700" fill="#000000" width="25" height="25"/>
<rect x="100" y="700" fill="#000000" width="75" height="25"/>
<rect x="200" y="700" fill="#000000" width="25" height="25"/>
<rect x="250" y="700" fill="#000000" width="50" height="25"/>
<rect x="350" y="700" fill="#000000" width="250" height="25"/>
<rect x="650" y="700" fill="#000000" width="25" height="25"/>
<rect x="725" y="700" fill="#000000" width="50" height="25"/>
<rect x="50" y="725" fill="#000000" width="25" height="25"/>
<rect x="200" y="725" fill="#000000" width="25" height="25"/>
<rect x="250" y="725" fill="#000000" width="25" height="25"/>
<rect x="300" y="725" fill="#000000" width="75" height="25"/>
<rect x="400" y="725" fill="#000000" width="75" height="25"/>
<rect x="500" y="725" fill="#000000" width="125" height="25"/>
<rect x="650" y="725" fill="#000000" width="50" height="25"/>
<rect x="50" y="750" fill="#000000" width="175" height="25"/>
<rect x="250" y="750" fill="#000000" width="25" height="25"/>
<rect x="375" y="750" fill="#000000" width="50" height="25"/>
<rect x="450" y="750" fill="#000000" width="25" height="25"/>
<rect x="550" y="750" fill="#000000" width="25" height="25"/>
<rect x="675" y="750" fill="#000000" width="25" height="25"/>
<rect x="750" y="750" fill="#000000" width="25" height="25"/>
</svg>
